<svg width="30" height="29" viewBox="0 0 30 29" fill="none" xmlns="http://www.w3.org/2000/svg">
<path fill-rule="evenodd" clip-rule="evenodd" d="M4.15159 2.30092C4.04043 2.28546 3.89717 2.28276 3.38211 2.28276H1.14137C0.511006 2.28276 0 1.77177 0 1.1414C0 0.511043 0.511006 3.08319e-05 1.14137 3.08319e-05H3.38211C3.40721 3.08319e-05 3.43195 3.08319e-05 3.45637 1.55731e-05C3.8624 -0.000120802 4.17726 -0.000227615 4.46622 0.0399793C6.06908 0.263031 7.39969 1.39023 7.88321 2.9346C7.90688 3.01019 7.92793 3.08814 7.94737 3.16963L24.5053 5.50723C24.557 5.51451 24.608 5.52168 24.6582 5.52873C25.473 5.64322 26.1017 5.73153 26.6221 5.95627C28.0382 6.56784 29.0032 7.90887 29.133 9.44597C29.1808 10.0108 29.0648 10.6349 28.9144 11.4439C28.9052 11.4938 28.8957 11.5444 28.8861 11.5957C28.8773 11.644 28.8685 11.6917 28.8598 11.7386C28.6688 12.7713 28.5379 13.4792 28.2724 14.0851C27.551 15.7311 26.0963 16.9411 24.3464 17.3507C23.7024 17.5015 22.9825 17.5012 21.9323 17.5009C21.8845 17.5009 21.8362 17.5009 21.787 17.5009H10.3602C10.4197 17.8144 10.4766 18.0771 10.5385 18.3055C10.6669 18.7794 10.7903 18.9967 10.9182 19.1415C11.0394 19.2784 11.1797 19.3973 11.3348 19.4944C11.4985 19.5966 11.7333 19.6828 12.2217 19.7315C12.7318 19.7825 13.396 19.7837 14.3935 19.7837H25.9977C26.6281 19.7837 27.1391 20.2947 27.1391 20.925C27.1391 21.5554 26.6281 22.0664 25.9977 22.0664H14.3376C13.4107 22.0664 12.6318 22.0666 11.995 22.0029C11.3239 21.936 10.7012 21.7905 10.1245 21.4298C9.78328 21.2165 9.47461 20.955 9.20805 20.6534C8.75753 20.1439 8.51164 19.5536 8.33523 18.9027C8.16784 18.285 8.03981 17.5166 7.88746 16.6023L5.84918 4.37268C5.76451 3.86463 5.7383 3.72376 5.70476 3.61665C5.48498 2.91467 4.88016 2.40232 4.15159 2.30092ZM9.97099 15.2182H21.787C23.0382 15.2182 23.4726 15.2109 23.8261 15.1281C24.876 14.8823 25.7489 14.1563 26.1817 13.1687C26.3273 12.8362 26.4138 12.4104 26.6416 11.18C26.833 10.1465 26.8767 9.85434 26.8585 9.63816C26.7994 8.93948 26.3608 8.32993 25.7171 8.05194C25.5179 7.96594 25.2271 7.91447 24.1861 7.76754L8.35674 5.53279L9.97099 15.2182Z" fill="#5A5959"/>
<path d="M27.0122 26.2514C27.0122 27.5121 25.9902 28.5341 24.7295 28.5341C23.4688 28.5341 22.4468 27.5121 22.4468 26.2514C22.4468 24.9907 23.4688 23.9687 24.7295 23.9687C25.9902 23.9687 27.0122 24.9907 27.0122 26.2514Z" fill="#5A5959"/>
<path d="M13.316 26.2514C13.316 27.5121 12.2939 28.5341 11.0332 28.5341C9.7725 28.5341 8.75049 27.5121 8.75049 26.2514C8.75049 24.9907 9.7725 23.9687 11.0332 23.9687C12.2939 23.9687 13.316 24.9907 13.316 26.2514Z" fill="#5A5959"/>
</svg>
